HIERARCHY
ROOT Hips
{
	OFFSET 0.000000 0.000000 0.000000
	CHANNELS 6 Xposition Yposition Zposition Xrotation Yrotation Zrotation
	JOINT LeftUpLeg_virtual
	{
		OFFSET 0.000000 0.000000 0.000000
		CHANNELS 3 Xrotation Yrotation Zrotation
		JOINT LeftUpLeg
		{
			OFFSET 10.205400 -3.823500 0.155100
			CHANNELS 3 Xrotation Yrotation Zrotation
			JOINT LeftLeg
			{
				OFFSET 0.708757 -12.982077 0.567790
				CHANNELS 3 Xrotation Yrotation Zrotation
				JOINT LeftFoot
				{
					OFFSET -0.708756 -10.717838 -2.184338
					CHANNELS 3 Xrotation Yrotation Zrotation
					JOINT LeftToeBase
					{
						OFFSET 0.108149 -7.191104 7.560241
						CHANNELS 3 Xrotation Yrotation Zrotation
						JOINT LeftToe_End
						{
							OFFSET 0.070230 0.081724 4.490308
							CHANNELS 3 Xrotation Yrotation Zrotation
							End Site
							{
								OFFSET 0 0 0
							}
						}
					}
				}
			}
		}
	}
	JOINT RightUpLeg_virtual
	{
		OFFSET 0.000000 0.000000 0.000000
		CHANNELS 3 Xrotation Yrotation Zrotation
		JOINT RightUpLeg
		{
			OFFSET -10.205400 -3.823500 0.005500
			CHANNELS 3 Xrotation Yrotation Zrotation
			JOINT RightLeg
			{
				OFFSET -0.708756 -12.982134 0.610632
				CHANNELS 3 Xrotation Yrotation Zrotation
				JOINT RightFoot
				{
					OFFSET 0.708754 -10.717769 -1.945823
					CHANNELS 3 Xrotation Yrotation Zrotation
					JOINT RightToeBase
					{
						OFFSET -0.108140 -7.191069 7.372968
						CHANNELS 3 Xrotation Yrotation Zrotation
						JOINT RightToe_End
						{
							OFFSET -0.070227 0.081735 4.479403
							CHANNELS 3 Xrotation Yrotation Zrotation
							End Site
							{
								OFFSET 0 0 0
							}
						}
					}
				}
			}
		}
	}
	JOINT Spine_virtual
	{
		OFFSET 0.000000 0.000000 0.000000
		CHANNELS 3 Xrotation Yrotation Zrotation
		JOINT Spine
		{
			OFFSET 0.000000 6.876099 0.125700
			CHANNELS 3 Xrotation Yrotation Zrotation
			JOINT Spine1
			{
				OFFSET 0.000000 5.730043 0.104720
				CHANNELS 3 Xrotation Yrotation Zrotation
				JOINT Spine1_split
				{
					OFFSET 0.000000 5.730043 0.104720
					CHANNELS 3 Xrotation Yrotation Zrotation
					JOINT Spine2
					{
						OFFSET 0.000000 5.730043 0.104720
						CHANNELS 3 Xrotation Yrotation Zrotation
						JOINT Neck_virtual
						{
							OFFSET 0.000000 0.000000 0.000000
							CHANNELS 3 Xrotation Yrotation Zrotation
							JOINT Neck
							{
								OFFSET 0.000000 10.314075 0.188496
								CHANNELS 3 Xrotation Yrotation Zrotation
								JOINT Head
								{
									OFFSET 0.000000 7.643700 -2.377400
									CHANNELS 3 Xrotation Yrotation Zrotation
									JOINT HeadTop_End
									{
										OFFSET 0.000000 43.788605 -13.619600
										CHANNELS 3 Xrotation Yrotation Zrotation
										End Site
										{
											OFFSET 0 0 0
										}
									}
								}
							}
						}
						JOINT LeftShoulder_virtual
						{
							OFFSET 0.000000 0.000000 0.000000
							CHANNELS 3 Xrotation Yrotation Zrotation
							JOINT LeftShoulder
							{
								OFFSET 2.196100 4.412489 0.087492
								CHANNELS 3 Xrotation Yrotation Zrotation
								JOINT LeftShoulder_split
								{
									OFFSET 2.196100 4.412489 0.087492
									CHANNELS 3 Xrotation Yrotation Zrotation
									JOINT LeftArm
									{
										OFFSET 8.771219 -2.981674 -0.026999
										CHANNELS 3 Xrotation Yrotation Zrotation
										JOINT LeftForeArm
										{
											OFFSET 8.512804 0.000000 -0.000000
											CHANNELS 3 Xrotation Yrotation Zrotation
											JOINT LeftHand
											{
												OFFSET 18.484802 0.000000 -0.000000
												CHANNELS 3 Xrotation Yrotation Zrotation
												End Site
												{
													OFFSET 0 0 0
												}
											}
										}
									}
								}
							}
						}
						JOINT RightShoulder_virtual
						{
							OFFSET 0.000000 0.000000 0.000000
							CHANNELS 3 Xrotation Yrotation Zrotation
							JOINT RightShoulder
							{
								OFFSET -2.196100 4.412496 0.070690
								CHANNELS 3 Xrotation Yrotation Zrotation
								JOINT RightShoulder_split
								{
									OFFSET -2.196100 4.412496 0.070690
									CHANNELS 3 Xrotation Yrotation Zrotation
									JOINT RightArm
									{
										OFFSET -8.771282 -2.981682 -0.094208
										CHANNELS 3 Xrotation Yrotation Zrotation
										JOINT RightForeArm
										{
											OFFSET -8.494598 0.000000 0.000000
											CHANNELS 3 Xrotation Yrotation Zrotation
											JOINT RightHand
											{
												OFFSET -18.483803 0.000000 0.000001
												CHANNELS 3 Xrotation Yrotation Zrotation
												End Site
												{
													OFFSET 0 0 0
												}
											}
										}
									}
								}
							}
						}
					}
				}
			}
		}
	}
}
MOTION
Frames: 7
Frame Time: 0.03333333
-1.514212 28.717409 -2.092533 0.000000 0.000000 0.000000 9.459913 -48.788868 4.243155 -16.896585 52.125982 33.572606 55.631208 -7.700100 -5.248398 -42.605480 23.812939 -2.820144 6.016965 -8.300066 -6.167005 0.000000 0.000000 0.000000 12.155097 -45.759184 5.474785 -26.248731 10.224046 -18.042776 27.884307 7.183004 -4.357093 -10.057941 -16.323373 45.819590 5.845087 11.521859 -23.712458 0.000000 0.000000 0.000000 13.007831 -44.095128 3.889851 4.663912 -23.446258 10.093743 -3.037389 -6.451818 4.332333 -0.134349 -1.079292 0.208660 0.000000 0.000000 0.000000 -7.384797 -4.904233 5.074317 -31.986674 58.041582 14.140735 42.218489 40.076866 -9.606267 0.000000 0.000000 0.000000 -1.296036 -7.126841 5.664027 10.406166 -15.117133 29.487317 -10.350161 0.664939 -9.305450 -19.033676 5.620345 4.038846 3.392750 -49.570808 -6.679686 0.000000 0.000000 0.000000 -2.541457 -6.067425 5.607593 3.309468 -20.850964 16.619689 -6.063780 5.939695 3.039120 -48.538480 13.007322 -33.132356 -18.610905 52.661783 31.217089 0.000000 0.000000 0.000000 
-1.931686 29.532782 -1.405136 0.000000 0.000000 0.000000 10.361837 -46.664091 3.994763 -10.774473 55.833545 27.138211 48.417288 -5.909126 -4.825752 -46.465596 22.233073 1.973786 3.594446 -8.881520 -2.020811 0.000000 0.000000 0.000000 11.626865 -43.571187 4.427741 -19.958245 8.635490 -16.959262 28.851952 3.831614 -4.153304 -15.028151 -23.302148 44.281496 4.148399 11.304259 -20.706562 0.000000 0.000000 0.000000 14.581202 -41.494287 3.641777 2.221699 -22.520804 8.548414 -4.953259 -6.977066 4.483341 0.026666 -0.380977 0.160244 0.000000 0.000000 0.000000 -9.406053 -5.817068 4.925146 -32.474353 57.465885 17.256283 45.448202 41.278030 -6.849314 0.000000 0.000000 0.000000 -2.614319 -7.831496 6.453885 10.560360 -14.014752 34.145191 -10.040143 -1.226130 -8.767787 -21.759663 -3.038356 12.370412 5.374254 -44.781784 -3.923182 0.000000 0.000000 0.000000 -4.098506 -7.053330 5.451388 1.977172 -17.086809 14.093493 -3.263707 3.627121 1.747522 -56.085391 11.937918 -36.528217 -31.197483 53.984101 42.254361 0.000000 0.000000 0.000000 
-2.246376 30.097580 -0.569542 0.000000 0.000000 0.000000 11.118546 -43.799804 3.348491 -4.404020 55.781424 20.848674 42.635451 -4.597793 -3.333023 -47.912838 20.921679 4.834930 1.659419 -9.230740 -0.460687 0.000000 0.000000 0.000000 10.666421 -41.431193 3.195460 -15.530674 8.415024 -15.054550 31.965111 -0.500555 -4.081835 -17.943370 -30.099988 39.692937 1.132489 10.213462 -14.481273 0.000000 0.000000 0.000000 16.409130 -38.538174 3.487374 -1.155177 -20.890946 7.242703 -6.740595 -7.648600 4.157569 0.153448 0.473218 -0.115922 0.000000 0.000000 0.000000 -10.855613 -6.722601 4.197211 -32.117800 56.384417 19.709438 47.290287 42.907248 -4.273689 0.000000 0.000000 0.000000 -3.504443 -8.749229 6.920693 10.381814 -12.447964 39.338936 -9.377226 -1.541541 -7.924350 -27.170764 -10.920392 18.651158 10.541793 -40.998569 1.366082 0.000000 0.000000 0.000000 -5.422704 -8.255937 4.715149 0.870420 -13.900167 9.524920 -0.132578 1.031495 0.628608 -63.306428 11.360164 -38.978305 -43.578287 54.164104 53.089250 0.000000 0.000000 0.000000 
-2.494404 30.252953 0.393932 0.000000 0.000000 0.000000 11.548333 -39.892171 2.266594 0.529194 52.601295 16.827218 38.615656 -4.592177 -0.970858 -48.113799 20.550352 4.965084 2.619122 -9.051114 -1.245315 0.000000 0.000000 0.000000 9.978293 -38.935732 2.102222 -12.820000 8.995431 -12.754425 36.131943 -4.678971 -3.874940 -16.265947 -35.046503 35.022799 -6.485424 8.072545 -5.996955 0.000000 0.000000 0.000000 17.866317 -35.044861 3.012331 -4.938448 -18.870233 6.104339 -8.270883 -8.491844 3.361142 0.142702 1.326288 -0.388043 0.000000 0.000000 0.000000 -11.699702 -7.597606 2.937227 -29.925661 55.294527 20.512521 47.755935 44.647639 -1.549282 0.000000 0.000000 0.000000 -3.883398 -9.877460 6.935993 10.014607 -10.908148 44.734385 -8.909919 0.013212 -6.636003 -35.362427 -17.273280 22.302504 17.474783 -39.236636 7.974823 0.000000 0.000000 0.000000 -6.556552 -9.584202 3.468579 0.180048 -11.909566 2.707370 2.508155 -1.614715 0.297111 -69.252914 10.816897 -40.080339 -54.222734 53.778642 62.347770 0.000000 0.000000 0.000000 
-2.622845 29.902641 1.602610 0.000000 0.000000 0.000000 11.581585 -34.559156 0.806349 3.233085 48.425891 16.010406 35.571649 -6.089684 1.182702 -48.443810 20.110558 1.852267 2.748121 -8.561410 -2.238708 0.000000 0.000000 0.000000 9.521809 -35.699247 1.101697 -12.810717 9.853561 -10.732456 42.062911 -6.865020 -3.350452 -7.044740 -36.706980 34.433279 -16.398447 4.427045 2.327317 0.000000 0.000000 0.000000 18.071823 -30.600064 2.008742 -8.470591 -16.759148 4.837311 -9.372171 -9.457135 2.207850 0.142272 1.936472 -0.606559 0.000000 0.000000 0.000000 -11.868152 -8.372871 1.442921 -25.450661 54.236422 19.573244 46.357795 46.315933 1.750648 0.000000 0.000000 0.000000 -3.980243 -11.031332 6.485772 9.426187 -9.623217 49.353140 -8.479338 1.766672 -5.015028 -44.178541 -21.634260 23.158291 25.463300 -39.937745 15.352302 0.000000 0.000000 0.000000 -7.524741 -10.886931 1.838549 -0.379720 -11.393164 -6.385716 3.575187 -3.629708 1.162782 -73.627896 10.403835 -39.722925 -61.606011 53.503071 68.586690 0.000000 0.000000 0.000000 
-2.651091 29.164064 2.900190 0.000000 0.000000 0.000000 11.251031 -27.590824 -0.855859 3.179183 44.632824 18.668432 34.596476 -8.709833 2.676006 -48.652998 19.070768 -3.745711 -0.474884 -8.027205 -2.176010 0.000000 0.000000 0.000000 9.280432 -30.621275 0.054456 -15.588204 10.166721 -9.164082 49.810500 -6.213304 -2.556556 7.403815 -33.782580 37.419567 -26.014937 0.357436 8.013091 0.000000 0.000000 0.000000 17.256859 -24.664197 0.690812 -11.081154 -14.725797 3.376811 -10.041279 -10.337408 0.904312 0.235066 2.285258 -0.648561 0.000000 0.000000 0.000000 -11.592911 -8.891963 -0.102025 -17.935491 52.895918 16.761511 42.707185 46.948118 6.091053 0.000000 0.000000 0.000000 -3.907128 -11.952044 5.529545 9.071174 -9.402524 52.162401 -7.904578 3.071649 -3.278971 -51.278960 -23.888735 22.001221 33.476697 -43.250797 22.766926 0.000000 0.000000 0.000000 -8.294366 -11.833255 0.201746 -1.225492 -12.146739 -17.244320 3.500328 -4.085703 1.625424 -76.421224 10.595997 -37.561854 -64.317023 53.874476 70.391103 0.000000 0.000000 0.000000 
-2.717288 28.243439 4.126099 0.000000 0.000000 0.000000 10.837069 -19.112995 -2.378464 -1.619669 41.009887 25.048629 37.933464 -12.498223 3.949492 -46.475080 17.536760 -11.818570 -3.394797 -7.489079 -2.075340 0.000000 0.000000 0.000000 9.552946 -22.376612 -1.197700 -20.229439 8.744026 -7.952177 58.768293 -3.227016 -2.129940 19.082717 -27.215872 39.682224 -36.761243 -2.238937 9.006810 0.000000 0.000000 0.000000 15.859373 -16.966668 -0.768148 -12.275873 -12.765270 1.803371 -10.247711 -10.839551 -0.345550 0.311829 1.934731 -0.342964 0.000000 0.000000 0.000000 -11.051058 -8.951714 -1.478155 -7.731380 50.854389 12.918249 36.714545 45.805147 11.227877 0.000000 0.000000 0.000000 -3.807905 -12.395229 4.123381 9.200314 -10.722934 52.859418 -6.660208 3.207686 -1.580126 -55.452165 -23.820869 19.918531 40.410240 -49.139803 29.441653 0.000000 0.000000 0.000000 -8.645270 -12.087478 -1.110577 -2.647712 -13.480683 -29.238824 3.187168 -3.287101 2.303650 -77.734526 12.033216 -33.799126 -61.638762 55.037951 66.990618 0.000000 0.000000 0.000000 
